<?xml version="1.0" encoding="UTF-8" standalone="no"?>
<svg
   xmlns:dc="http://purl.org/dc/elements/1.1/"
   xmlns:cc="http://creativecommons.org/ns#"
   xmlns:rdf="http://www.w3.org/1999/02/22-rdf-syntax-ns#"
   xmlns:svg="http://www.w3.org/2000/svg"
   xmlns="http://www.w3.org/2000/svg"
   xmlns:sodipodi="http://sodipodi.sourceforge.net/DTD/sodipodi-0.dtd"
   xmlns:inkscape="http://www.inkscape.org/namespaces/inkscape"
   viewBox="0 0 100 115"
   version="1.1"
   x="0px"
   y="0px"
   id="svg14"
   width="100"
   height="115"
   inkscape:version="0.92.1 r15371"
   sodipodi:docname="logo.svg">
  <title
     id="title3680">Sad</title>
  <metadata
     id="metadata20">
    <rdf:RDF>
      <cc:Work
         rdf:about="">
        <dc:format>image/svg+xml</dc:format>
        <dc:type
           rdf:resource="http://purl.org/dc/dcmitype/StillImage" />
        <dc:title>Sad</dc:title>
        <cc:license
           rdf:resource="http://creativecommons.org/licenses/by/3.0/" />
        <dc:creator>
          <cc:Agent>
            <dc:title>Icon Island</dc:title>
          </cc:Agent>
        </dc:creator>
        <dc:source>https://thenounproject.com/icon/475570/</dc:source>
      </cc:Work>
      <cc:License
         rdf:about="http://creativecommons.org/licenses/by/3.0/">
        <cc:permits
           rdf:resource="http://creativecommons.org/ns#Reproduction" />
        <cc:permits
           rdf:resource="http://creativecommons.org/ns#Distribution" />
        <cc:requires
           rdf:resource="http://creativecommons.org/ns#Notice" />
        <cc:requires
           rdf:resource="http://creativecommons.org/ns#Attribution" />
        <cc:permits
           rdf:resource="http://creativecommons.org/ns#DerivativeWorks" />
      </cc:License>
    </rdf:RDF>
  </metadata>
  <defs
     id="defs18" />
  <sodipodi:namedview
     pagecolor="#ffffff"
     bordercolor="#666666"
     borderopacity="1"
     objecttolerance="10"
     gridtolerance="10"
     guidetolerance="10"
     inkscape:pageopacity="0"
     inkscape:pageshadow="2"
     inkscape:window-width="1920"
     inkscape:window-height="1027"
     id="namedview16"
     showgrid="false"
     inkscape:zoom="1.888"
     inkscape:cx="50"
     inkscape:cy="62.5"
     inkscape:window-x="1912"
     inkscape:window-y="-8"
     inkscape:window-maximized="1"
     inkscape:current-layer="svg14" />
  <g
     id="g8"
     style="fill:none;fill-rule:evenodd;stroke:none;stroke-width:1"
     transform="translate(0,6)">
    <path
       d="m 70.044813,55.273135 c -3.623263,0 -6.559816,2.937443 -6.559816,6.559816 0,3.623262 2.936553,6.560706 6.559816,6.560706 3.623262,0 6.559815,-2.937444 6.559815,-6.560706 0,-3.622373 -2.936553,-6.559816 -6.559815,-6.559816 M 51.432716,88.893069 c 5.719019,0 11.14857,1.880214 15.583237,5.347609 1.417953,1.10978 3.438002,0.99132 4.710776,-0.281454 v 0 c 1.499895,-1.499895 1.384108,-3.994673 -0.285016,-5.303965 -5.689627,-4.46584 -12.662716,-6.887584 -20.008997,-6.887584 -7.34539,0 -14.318479,2.421744 -20.008106,6.887584 -1.669123,1.309292 -1.785802,3.80407 -0.285015,5.303965 v 0 c 1.272773,1.273665 3.291931,1.391234 4.710776,0.281454 4.434667,-3.467395 9.864217,-5.347609 15.582345,-5.347609 M 37.287596,61.832951 c 0,-3.622373 -2.936553,-6.559816 -6.559816,-6.559816 -3.623263,0 -6.559816,2.937443 -6.559816,6.559816 0,3.623262 2.936553,6.560706 6.559816,6.560706 3.623263,0 6.559816,-2.937444 6.559816,-6.560706 M 89.44637,35.012968 c -0.562907,-1.264757 -2.25875,-3.993783 -3.837025,-4.000018 -0.214653,0 -0.420398,0.08372 -0.613675,0.176353 -1.422406,0.684929 -2.608784,1.960375 -4.175481,2.156323 -2.777122,0.347363 -4.310863,-2.600769 -2.988212,-4.851503 0.167447,-0.285016 0.363396,-0.638613 0.189714,-0.920066 -0.13182,-0.212871 -0.415054,-0.265421 -0.665334,-0.283235 -1.133828,-0.08105 -2.321097,0.122913 -3.376546,-0.296594 -4.18795,-1.66467 -0.301047,-5.460724 1.030511,-7.439802 0.06591,-0.09797 0.130929,-0.203074 0.137163,-0.320643 0.01603,-0.287688 -0.30461,-0.465822 -0.580719,-0.546874 -1.198848,-0.349144 -2.541094,-0.244935 -3.625935,-0.863063 -1.510584,-0.861282 -1.982641,-2.973961 -0.930755,-4.357178 0,-8.91e-4 1.65131,-2.172355 1.65131,-2.172355 C 72.312469,10.437485 72.032797,9.1994474 71.072651,8.7131392 70.016311,8.1769534 68.597467,7.6986613 67.344288,7.3317035 66.450942,7.0698453 65.595895,7.8465132 65.76156,8.763017 l 0.01514,0.087286 c 0.349144,1.983532 -0.881768,3.535086 -2.471621,4.55758 -0.4489,0.289469 -0.926302,0.554 -1.282571,0.952131 -0.355379,0.398131 -0.571813,0.974398 -0.384772,1.474956 0.146071,0.391897 0.502341,0.661771 0.853267,0.888893 1.040307,0.676913 2.215106,1.213099 2.995337,2.177699 1.935435,2.393241 -0.929864,4.37321 -2.769106,5.56137 -0.60744,0.391896 -1.279008,0.921847 -1.250507,1.644184 0.03117,0.814077 0.905816,1.274555 1.516818,1.814304 1.67714,1.47941 1.556008,4.339365 -0.187041,5.712784 -0.640395,0.504122 -1.529288,0.904925 -1.642404,1.711876 -0.100646,0.716993 0.489871,1.325323 1.031401,1.806287 1.128485,1.000228 1.493661,2.476966 1.025166,3.933218 -0.0027,0.0089 -0.0053,0.01692 -0.008,0.02583 -0.550436,1.66556 1.018932,2.960601 2.735261,2.559797 0.917394,-0.214652 1.635278,-0.932536 1.969281,-1.814303 l 2.133164,-5.636187 c 0.469386,-1.244272 1.556008,-2.088631 2.888457,-2.233811 1.250506,-0.137164 2.46984,0.467604 3.234929,1.466941 l 1.986203,2.598097 c 0.261858,0.342018 0.71343,0.477401 1.120468,0.334893 l 1.743941,-0.608331 c 1.290586,-0.44979 2.725463,-0.104208 3.669577,0.883549 l 2.105554,2.201747 c 2.980196,3.116469 3.413955,-4.149651 2.656882,-5.850839 m -6.120714,6.664025 c -0.244935,-0.225341 -0.499668,-0.455135 -0.812295,-0.569141 -1.080388,-0.391897 -2.334457,0.680475 -3.454925,0.716102 -2.33802,0 -3.35517,-2.014705 -4.639522,-3.652655 -0.201293,-0.255624 -0.407929,-0.517482 -0.687601,-0.684038 -0.278781,-0.166556 -0.651083,-0.219106 -0.92541,-0.04453 -0.198621,0.127367 -0.312627,0.345582 -0.407929,0.563797 -0.0098,0.02227 -0.0196,0.04453 -0.02939,0.0668 -0.556672,1.302165 -1.027838,2.640849 -1.528397,3.965281 -0.480964,1.270992 0.458697,2.630161 1.816975,2.630161 0,0 6.880459,-0.02138 10.771814,-0.05878 0.962819,-0.0089 1.282571,-0.910269 0.916504,-1.712767 C 84.123716,42.411806 83.71935,42.037723 83.325672,41.677 M 71.986482,15.366476 c 0.05879,0.191495 0.260968,0.295704 0.44801,0.366958 1.201519,0.458697 2.552672,0.243154 3.700751,0.901362 1.563133,0.896018 2.012924,3.022948 0.874642,4.427542 -0.746385,0.922738 -1.493661,1.845476 -2.241827,2.766434 -0.08283,0.102427 -0.168337,0.21198 -0.187932,0.342019 -0.05789,0.390115 0.460478,0.583391 0.855047,0.600314 0.717884,0.03028 1.44022,-0.03474 2.156322,0.03652 2.190168,0.219105 3.770224,2.522389 2.582956,4.57183 -0.232466,0.400804 -0.560234,0.901363 -0.283235,1.272774 0.293923,0.392787 0.912051,0.169228 1.331558,-0.08551 0.771324,-0.468494 1.714548,-1.298603 2.613238,-1.672686 0.135383,-0.05611 0.268984,-0.101537 0.401695,-0.134492 1.130265,-0.279672 2.022721,0.459588 2.990884,0.944115 0.833671,0.416835 1.742158,-0.368739 1.465159,-1.260304 -1.264758,-4.066819 -3.459379,-7.805869 -6.26055,-11.005171 -1.081278,-1.234475 -6.461841,-7.6927533 -8.312662,-5.261213 -0.696507,0.916504 -1.618355,1.661998 -2.069036,2.748621 -0.05789,0.139836 -0.109553,0.295704 -0.06502,0.440884 M 59.854609,41.350115 c 0.768652,-0.399022 1.295931,-1.40103 0.874642,-2.157213 -0.771324,-1.384108 -2.029847,-1.656654 -2.059239,-3.529742 -0.02049,-1.352043 0.67335,-2.651537 1.789364,-3.409501 0.312627,-0.21198 0.6591,-0.389224 0.902253,-0.677803 1.211317,-1.441111 -1.172127,-2.477856 -1.778676,-3.460269 -0.825655,-1.338684 -0.770433,-3.12983 0.194167,-4.383008 0.513919,-0.668897 1.233584,-1.147189 1.960374,-1.574712 0.393678,-0.231575 0.809623,-0.465823 1.064356,-0.84525 1.090185,-1.626371 -2.552673,-2.942788 -3.181489,-4.030301 -0.56914,-0.984195 -0.723227,-2.223123 -0.309064,-3.281244 0.431087,-1.100873 1.40014,-1.896245 2.397695,-2.529515 0.738369,-0.469385 1.615683,-1.041198 1.616574,-1.9158399 8.91e-4,-0.388334 -0.13182,-0.7499477 -0.362504,-1.0848412 -1.300385,-1.8819947 -4.920975,-4.4471365 -7.297294,-2.9125048 -3.700752,2.389679 -4.299285,24.5398569 -0.944115,33.7975249 0.7259,2.001345 3.218897,2.98643 5.132956,1.994219 M 39.0636,11.471557 c 0.998446,0.63327 1.966609,1.428642 2.397695,2.529515 0.414164,1.058121 0.260077,2.297049 -0.308173,3.281244 -0.629707,1.087513 -4.272564,2.40393 -3.181488,4.030301 0.253842,0.379427 0.669787,0.613675 1.063464,0.84525 0.727681,0.427523 1.446455,0.905815 1.960374,1.574712 0.965491,1.253178 1.020713,3.044324 0.194167,4.383008 -0.606549,0.982413 -2.989993,2.019158 -1.778676,3.460269 0.243154,0.288579 0.589626,0.465823 0.902253,0.677803 1.116015,0.757964 1.80985,2.057458 1.789365,3.409501 -0.0285,1.873088 -1.287915,2.145634 -2.058349,3.529742 -0.422179,0.756183 0.1051,1.758191 0.873752,2.157213 1.914059,0.992211 4.407056,0.0071 5.132955,-1.994219 3.35517,-9.257668 1.836571,-32.0642728 -0.944114,-33.7975249 -2.818984,-1.7581909 -5.99691,1.0305101 -7.297294,2.9125048 -0.230685,0.3348935 -0.363395,0.6965072 -0.362505,1.0848412 8.91e-4,0.8746419 0.878205,1.4464549 1.616574,1.9158399 m -9.131192,30.567049 c -0.500559,-1.324432 -0.971726,-2.663116 -1.528397,-3.965281 -0.0098,-0.02227 -0.01959,-0.04453 -0.02939,-0.0668 -0.0953,-0.218215 -0.209309,-0.43643 -0.407929,-0.563797 -0.274328,-0.174572 -0.645739,-0.122022 -0.925411,0.04453 -0.279671,0.166556 -0.486308,0.428414 -0.68671,0.684038 -1.284352,1.63795 -2.302392,3.652655 -4.640412,3.652655 -1.119578,-0.03563 -2.373647,-1.107999 -3.454926,-0.716102 -0.312626,0.114006 -0.567359,0.3438 -0.812295,0.569141 -0.393678,0.360723 -0.798044,0.734806 -1.019822,1.220223 -0.366067,0.802498 -0.04631,1.70386 0.916504,1.712767 3.892247,0.03741 10.771814,0.05878 10.771814,0.05878 1.359169,0 2.29794,-1.359169 1.816976,-2.630161 M 13.544002,29.703659 c 0.968163,-0.484527 1.860618,-1.223787 2.990884,-0.944115 0.13271,0.03295 0.266312,0.07838 0.401694,0.134492 0.899581,0.374083 1.842805,1.204192 2.613238,1.672686 0.419508,0.254733 1.037636,0.478292 1.331558,0.08551 0.277,-0.371411 -0.05077,-0.87197 -0.283234,-1.272774 -1.187269,-2.049441 0.392787,-4.352725 2.583846,-4.57183 0.715211,-0.07125 1.437548,-0.0062 2.155431,-0.03652 0.394569,-0.01692 0.912942,-0.210199 0.855048,-0.600314 -0.01959,-0.130039 -0.1051,-0.239592 -0.187933,-0.342019 -0.748166,-0.920958 -1.494551,-1.843696 -2.241827,-2.766434 -1.138281,-1.404594 -0.688491,-3.531524 0.874642,-4.427542 1.14808,-0.658208 2.499232,-0.442665 3.700752,-0.901362 0.187042,-0.07125 0.389225,-0.175463 0.448009,-0.366958 0.04453,-0.14518 -0.0062,-0.301048 -0.06502,-0.440884 -0.450681,-1.086623 -1.371638,-1.832117 -2.069036,-2.748621 -1.850821,-2.4315403 -7.231384,4.026738 -8.312663,5.261213 -2.80028,3.199302 -4.995792,6.938352 -6.260549,11.005171 -0.277,0.891565 0.631488,1.677139 1.465159,1.260304 m 2.544656,8.958401 -2.105554,2.201747 c -2.980196,3.116469 -3.413954,-4.149651 -2.656881,-5.850839 0.562906,-1.264757 2.25875,-3.993783 3.837025,-4.000018 0.215543,0 0.420398,0.08372 0.613674,0.176353 1.423298,0.684929 2.608785,1.960375 4.175481,2.156323 2.777122,0.347363 4.310863,-2.600769 2.988212,-4.851503 C 22.773167,28.20911 22.57811,27.855513 22.7509,27.57406 c 0.13182,-0.212871 0.415055,-0.265421 0.665334,-0.283235 1.133828,-0.08105 2.321097,0.122913 3.377437,-0.296594 4.187059,-1.66467 0.300157,-5.460724 -1.031401,-7.439802 -0.06591,-0.09797 -0.130929,-0.203074 -0.137164,-0.320643 -0.01603,-0.287688 0.304611,-0.465822 0.58161,-0.546874 1.197957,-0.349144 2.540204,-0.244935 3.625045,-0.863063 1.510583,-0.861282 1.98264,-2.973961 0.930754,-4.357178 0,-8.91e-4 -1.65131,-2.172355 -1.65131,-2.172355 -0.651083,-0.856828 -0.371411,-2.0948656 0.588736,-2.5811738 1.056339,-0.5361858 2.475184,-1.0144779 3.728362,-1.3814357 0.893346,-0.2618582 1.748394,0.5148097 1.583619,1.4313135 l -0.01603,0.087286 c -0.349144,1.983532 0.881767,3.535086 2.471621,4.55758 0.4489,0.289469 0.926301,0.554 1.282571,0.952131 0.355379,0.398131 0.571813,0.974398 0.384771,1.474956 -0.146071,0.391897 -0.50234,0.661771 -0.852375,0.888893 -1.040308,0.676913 -2.215998,1.213099 -2.996228,2.177699 -1.935435,2.393241 0.930754,4.37321 2.769106,5.56137 0.60744,0.391896 1.279008,0.921847 1.251397,1.644184 -0.03206,0.814077 -0.906706,1.274555 -1.517709,1.814304 -1.677139,1.47941 -1.556008,4.339365 0.187042,5.712784 0.640395,0.504122 1.529288,0.904925 1.642403,1.711876 0.100646,0.716993 -0.489871,1.325323 -1.031401,1.806287 -1.128484,1.000228 -1.49366,2.476966 -1.025166,3.933218 0.0027,0.0089 0.0053,0.01692 0.0089,0.02583 0.549546,1.66556 -1.019822,2.960601 -2.736151,2.559797 -0.917395,-0.214652 -1.635278,-0.932536 -1.969281,-1.814303 l -2.132274,-5.636187 c -0.470276,-1.244272 -1.556899,-2.088631 -2.889347,-2.233811 -1.250507,-0.137164 -2.46984,0.467604 -3.234929,1.466941 l -1.986204,2.598097 c -0.261858,0.342018 -0.71343,0.477401 -1.119577,0.334893 L 19.75823,37.778514 c -1.290587,-0.44979 -2.725463,-0.104208 -3.669578,0.883549"
       id="path6"
       inkscape:connector-curvature="0"
       style="fill:#000000" />
  </g>
</svg>
